<svg width="19" height="19" viewBox="0 0 19 19" xmlns="http://www.w3.org/2000/svg" >
<path d="M1.21502 8.57925L1.23984 8.54373L1.21502 8.57925C1.28838 8.63052 1.37528 8.65802 1.46434 8.65803H2.51848V17.1977C2.51848 17.3168 2.56475 17.4312 2.6474 17.5157C2.73008 17.6003 2.84243 17.6479 2.95979 17.6479H7.33751C7.45487 17.6479 7.56722 17.6003 7.6499 17.5157C7.73255 17.4312 7.77882 17.3168 7.77882 17.1977V13.1715H10.9483V17.1977C10.9483 17.3168 10.9946 17.4312 11.0772 17.5157C11.1599 17.6003 11.2723 17.6479 11.3896 17.6479H15.7673C15.8847 17.6479 15.997 17.6003 16.0797 17.5157C16.1624 17.4312 16.2086 17.3168 16.2086 17.1977V8.65803H17.3351C17.4242 8.65802 17.5111 8.63052 17.5845 8.57925C17.6578 8.52799 17.7142 8.4554 17.7464 8.37107C17.7785 8.28676 17.785 8.19452 17.7651 8.1064C17.7451 8.01827 17.6996 7.9382 17.6343 7.87674L17.6046 7.9083L17.6343 7.87674L9.69894 0.409487C9.69894 0.409485 9.69894 0.409484 9.69894 0.409482C9.61753 0.332849 9.51073 0.290163 9.3997 0.290163C9.28868 0.290163 9.18188 0.332849 9.10047 0.409482C9.10047 0.409484 9.10047 0.409485 9.10047 0.409487L1.16518 7.87674L1.19488 7.9083L1.16518 7.87674C1.09988 7.9382 1.05435 8.01827 1.0344 8.1064C1.01445 8.19452 1.02096 8.28676 1.05313 8.37107C1.08529 8.4554 1.14166 8.52799 1.21502 8.57925ZM15.7673 7.75746C15.65 7.75746 15.5376 7.80514 15.4549 7.88969C15.3723 7.9742 15.326 8.08863 15.326 8.20774V16.7474H11.8309V12.7212C11.8309 12.6021 11.7847 12.4877 11.702 12.4031C11.6193 12.3186 11.507 12.2709 11.3896 12.2709H7.33751C7.22015 12.2709 7.1078 12.3186 7.02512 12.4031C6.94247 12.4877 6.8962 12.6021 6.8962 12.7212V16.7474H3.4011V8.20774C3.4011 8.14874 3.38973 8.0903 3.36763 8.03574C3.34553 7.98118 3.31311 7.93154 3.27218 7.88969C3.23125 7.84783 3.1826 7.81457 3.12899 7.79187C3.07538 7.76916 3.01788 7.75746 2.95979 7.75746H2.59382L9.39974 1.35303L16.2057 7.75746H15.7673Z"  stroke="#6A6E71" stroke-width="0.0866667"/>
</svg>
